PathFileType	4	(X/Y/Z)	53_2_86_p0_0-377_filt_butterworth.trc
DataRate	CameraRate	NumFrames	NumMarkers	Units	OrigDataRate	OrigDataStartFrame	OrigNumFrames
59.0	59.0	7	27	m	59.0	329	377
Frame#	Time	RHip			RKnee			RAnkle			RBigToe			RSmallToe			RHeel			LHip			LKnee			LAnkle			LBigToe			LSmallToe			LHeel			Neck			Head			Nose			RShoulder			RElbow			RWrist			RThumb			RIndex			RPinky			LShoulder			LElbow			LWrist			LThumb			LIndex			LPinky			
		X1	Y1	Z1	X2	Y2	Z2	X3	Y3	Z3	X4	Y4	Z4	X5	Y5	Z5	X6	Y6	Z6	X7	Y7	Z7	X8	Y8	Z8	X9	Y9	Z9	X10	Y10	Z10	X11	Y11	Z11	X12	Y12	Z12	X13	Y13	Z13	X14	Y14	Z14	X15	Y15	Z15	X16	Y16	Z16	X17	Y17	Z17	X18	Y18	Z18	X19	Y19	Z19	X20	Y20	Z20	X21	Y21	Z21	X22	Y22	Z22	X23	Y23	Z23	X24	Y24	Z24	X25	Y25	Z25	X26	Y26	Z26	X27	Y27	Z27	
329	5.576271186440678	0.3781714976424842	0.49805833559204166	0.6499294452767661	0.3617002876363627	0.7117481635631072	1.091933825161749	0.3825649944544715	0.875642743502534	1.5143391825546502	0.3128087790035347	0.7218846636127231	1.5591175700303068	0.3729072323253195	0.7097716559411424	1.5616574079054146	0.37355982852182207	0.9243751075366058	1.5524856901974926	0.2071706149831371	0.5748039199150932	0.634950886103492	0.19033417344174314	0.7487357549468218	1.079217764694856	0.18193657391926224	0.8791369800322154	1.5082032241330667	0.16793552710176438	0.7244196877629834	1.550896632972419	0.11592085962376641	0.7619833529155045	1.5471672013820088	0.1902781029679524	0.9637170519284612	1.5759598393044771	0.3422511587794661	0.40845385177870175	0.053825708753821554	0.33693596922143226	0.35674464298905106	-0.180468463421809	0.2943602718419024	0.30041471275293663	-0.050836995794875696	0.4715503501624278	0.3864698690554216	0.19367195503184298	0.4646878824812545	0.2846643935570758	0.46752199456376675	0.2746911733098969	0.13136516755156305	0.542457464221303	0.14448242736272124	0.0846568493055733	0.5353989207741533	0.1426247058408051	0.06785150629274483	0.5473695606291856	0.18688491461150655	0.0550919172370556	0.5897151973547499	0.22064500635963386	0.4874389720180354	0.09662043850996468	0.031600357512021435	0.3069064583679719	0.0686993263049497	-0.008973261444042225	0.11764233078921961	-0.061909987185478396	0.020948684788991347	0.011248191533520076	-0.12136139628073178	0.007794230816983407	0.0059750342108147916	-0.15123186840251138	-0.04906020214190783	0.035461507383847644	-0.14603297949829958
330	5.593220338983051	0.37832407053477923	0.49686456860925404	0.6494498375376715	0.3616446925013632	0.7124898434022139	1.0931830157116162	0.38375880989482775	0.8794928498778657	1.5157283134768798	0.3125674044580519	0.7209302210167774	1.5588384694979014	0.37305346717216153	0.709895766121156	1.5620304354827377	0.3736716735365516	0.9243876917510425	1.5523460708701429	0.2080588795101843	0.5739746138845353	0.6326509734791528	0.18868113978659243	0.7516440094380223	1.0794598308519872	0.1816252734188682	0.8793685962960377	1.5094195762806102	0.1677599821974437	0.7253444778508474	1.5529457352521931	0.11592298639660378	0.7618888207312148	1.5470337933847138	0.1900094169803744	0.9643208771956613	1.5758776953126925	0.3429159867695838	0.4075779053326809	0.0541825792463709	0.3398188450521264	0.3484265386537992	-0.179459030703143	0.2956514660356724	0.29780976422755634	-0.04922226340273976	0.47152963097465217	0.3870371282171417	0.19455814639373564	0.46532583887218293	0.3044482642191627	0.4691697134990894	0.2847693070252463	0.15464575064306474	0.56618231016969	0.15029427674531526	0.10201445323692487	0.5722003241065101	0.15269623375580424	0.08770745959382706	0.5884579158281877	0.2012022090126511	0.05971110743359294	0.6279851579828828	0.22084388649916417	0.486998086647657	0.0969777320559926	0.02542922375455918	0.30964296771293015	0.09447788379219706	-0.01465461028810034	0.11809605576230725	-0.021618577390186113	0.010577084534213955	0.00441308774370093	-0.07450901483224147	-0.0031078674316674703	-0.008383293256259784	-0.10427417577721677	-0.0574474835324285	0.024860370402864658	-0.0997659906191318
331	5.610169491525424	0.3778569584094594	0.49560465099418444	0.6489563116049137	0.3621359767594096	0.7128941523421002	1.0938330828276408	0.3842482399887232	0.8810139375232997	1.5162720005215744	0.3127587925809889	0.7213814152880136	1.5596716289916792	0.3732808772732114	0.7100328645855912	1.561985146010485	0.3732406979132044	0.9244692915635762	1.5522500219203694	0.20736644428880324	0.5742352602680013	0.627538961595178	0.18810003747207363	0.7560120571666825	1.080376315061129	0.1811779558279668	0.8793842259568984	1.5110251718824783	0.16803725111015605	0.7261041131582769	1.554857647834593	0.11596671174119744	0.7616935793525977	1.5470007651782893	0.1897530269605277	0.9642547288610069	1.5757712669499027	0.3428152442073425	0.4089411939713026	0.053950669731742486	0.34119626941724307	0.34426589491792337	-0.1794059695402995	0.2977336850718395	0.29414031769521215	-0.047471365406030495	0.4715267260918496	0.3872135832426783	0.19468859779471495	0.4666738591215912	0.3276318525444595	0.46944478948263	0.2960379251386429	0.1747008806560183	0.588865625710787	0.15736698849937425	0.11459938614473086	0.6061529943204372	0.16341859896950262	0.10434690353813081	0.6276045187571464	0.21693074401422618	0.07697638041475834	0.6644245016170227	0.21999879921661447	0.4862822879715053	0.09818172744470796	0.01705689128958143	0.32513125209640814	0.12175897636940083	-0.020189919087112644	0.11863129455599286	0.021236441624622134	0.0008117228973776695	0.0013773463041973355	-0.024316017526256287	-0.014424930698490558	-0.017962773507185465	-0.05535720677148455	-0.06135212619385305	0.010581458020711296	-0.047225730841085105
332	5.627118644067797	0.3774531085689001	0.49602271458691605	0.6483271516447942	0.36398891761691965	0.7131522697559096	1.0948248359567994	0.38427093217164265	0.8810684947051801	1.5162646590606266	0.3130331547043051	0.7220567083503274	1.5610337821465052	0.3734772850617408	0.7101459460522094	1.5618566778285594	0.3720778970348525	0.9245064833094448	1.5521587774661705	0.20460114432700488	0.5743671560756672	0.6224208432962804	0.18794710515332066	0.761921089582318	1.08320261530015	0.18076753235856136	0.8788313919057634	1.512189009348035	0.16880358324570022	0.7267662358494932	1.5572430687638914	0.1160567609080358	0.7612876548573693	1.547415406988621	0.18946188401966504	0.9635869961124801	1.5756357975362896	0.3412218774256306	0.4163046233128592	0.05345580516714985	0.34110375332408566	0.3444681022831387	-0.17887004209709595	0.29986573261767996	0.29155890441387594	-0.04525403045032497	0.4715490233442953	0.3871434360404963	0.19591344019046159	0.46926742987609293	0.35338463068095866	0.4699353211966875	0.3065801635792482	0.19120653145908267	0.6108106897821999	0.16543074707118807	0.12748674702592655	0.6395809730792239	0.1738001178109698	0.12189827474356248	0.6648844786325927	0.23297871793246352	0.10040536704718994	0.69853490157224	0.217171901923814	0.4857858233295572	0.10133643406384155	0.008447524806801839	0.34968782038456403	0.1482984869117052	-0.02622938616757997	0.11967960329114621	0.06683441430725431	-0.006699130870406808	0.001632315825065732	0.029139443732269545	-0.02486083775147376	-0.022186453790165844	-0.0024000163113792727	-0.06163337532827651	-0.009557255271632425	0.01365614699516547
333	5.6440677966101696	0.3772679244091821	0.49915235065294705	0.6473054693301704	0.3671742052321547	0.7145605759072431	1.0968558736511145	0.3841743726537242	0.8807941771330161	1.5161336427119618	0.31323621622704495	0.722569300067933	1.56200391532032	0.3735102817228712	0.710046969882325	1.561753317682153	0.37052634268257834	0.924312373078273	1.5520738342996976	0.20096252912541307	0.5737574674322308	0.6201762563918607	0.18779750353322872	0.767212467597459	1.0879272795566923	0.18052958474023806	0.8779409874471514	1.512567774474606	0.16990468055179977	0.727459932441051	1.5598394882128133	0.11616697458099164	0.7607381544169038	1.548568693372534	0.18913710469997772	0.9626978092789558	1.5754513793067917	0.33852695874620786	0.42740083204298024	0.05364521449438703	0.3404240892061293	0.3466133788993514	-0.17756124296259723	0.3011782140959695	0.2908750339487191	-0.04288285235399091	0.4715701487125529	0.3871887744816113	0.19898249373366134	0.4725884337182731	0.3794942999909986	0.47191135912724724	0.31604986876704005	0.20800298943514114	0.6328608565201064	0.1753009402912689	0.14669938402510457	0.6735968119739556	0.1845678967739689	0.14441831121870533	0.7017847199465872	0.24860833227732454	0.12465711832594908	0.7311181985105045	0.21211435873256848	0.48617422543755634	0.1060184187362933	0.003979888044673053	0.37831442484968536	0.17302140292766643	-0.031092006354687424	0.12446360148517173	0.11541688387028101	-0.011463848355539109	0.0032523272741414714	0.08561925937116485	-0.0325424776931184	-0.02391493801328038	0.0576034926683859	-0.060550595094789994	-0.030272828779665528	0.08225127649787595
334	5.661016949152542	0.37695966571306416	0.5038280531338514	0.6461397391195058	0.3701779498813139	0.7186883527607051	1.1003346105419447	0.38410984993194747	0.8806591983194034	1.516073960743341	0.31329071113106804	0.7228621268575548	1.5623604527330914	0.3733475797828389	0.7097379543945654	1.5616886634285712	0.36935989053715257	0.9239002952233325	1.5520396672858519	0.1985225168966206	0.5725501080010982	0.6213397705760384	0.1877481628716508	0.7700466894052252	1.0925250359762047	0.18047258181171896	0.8774209843214447	1.5124901289740524	0.17122766572296755	0.7282951918711041	1.5617156950914008	0.11623927888443847	0.7602829007556681	1.5501472803939398	0.18884223960459803	0.9620462217741179	1.5752916648026531	0.3360500761287948	0.43711749630952645	0.055062540143120974	0.33995144793342685	0.34817580546979804	-0.17627470137320597	0.30156695939414224	0.29123547574409664	-0.041033152455269034	0.4716804908878044	0.38793473323463357	0.20315865503158614	0.47556122739721657	0.40194652851810336	0.4751657743996492	0.32560118534230376	0.22834397409899793	0.6537597325509055	0.18772765764940064	0.1710013156115655	0.7078522116211665	0.19781790857208933	0.17179856791997208	0.7389456458517516	0.2646000382669884	0.15282672189605193	0.7632586481623393	0.20624526178606023	0.488186794907721	0.11088193282019179	0.006854352447364227	0.40893245790026594	0.19622331866243292	-0.03331912630509812	0.136130691618785	0.16574764227107583	-0.014869451499660027	0.006139525813500904	0.1453566294071135	-0.037047194600546625	-0.023777299709660728	0.12487459469614963	-0.06111010756082862	-0.040327812933276405	0.1555524074902292
335	5.677966101694915	0.37614235933814105	0.5074748458144608	0.6457343594823385	0.37135616595958504	0.72490541666174	1.1049720349301335	0.38408009447314684	0.8806732553505492	1.5160865537841552	0.31312535678794623	0.7229649290885818	1.5627914458840406	0.3730668792175706	0.7094948244946413	1.5616945415013088	0.36890351235783453	0.923951687801404	1.5521176103854064	0.19867639909864648	0.5716435790028821	0.6246320642335941	0.1882861571788104	0.7696167919714555	1.0942386813733247	0.18052239818005333	0.8775690490636492	1.512360359879099	0.17260937028649695	0.7292194539484299	1.5626556136018757	0.11621451385334809	0.7601768738478175	1.5514090718430165	0.1886216537505979	0.9618038758682962	1.575250436661557	0.33474886599610143	0.4423337595014201	0.05694782909426867	0.3398299344803957	0.3485742142129319	-0.17549463753258313	0.3015055935917479	0.29170580176477834	-0.04007240036170574	0.4719508247327744	0.39011399366117555	0.20695445601538626	0.47734153591001766	0.4171265891618868	0.47817332352221203	0.3363725172728671	0.2516986455583997	0.6709717295676635	0.2027075763130707	0.1940959657319135	0.7407279489692444	0.21536283764832378	0.200375764937097	0.7740522917775424	0.2820024428019694	0.18726983959804064	0.7943408243968473	0.2020876631179467	0.49211101984282524	0.11481370623539575	0.015541121385000953	0.43839308090986556	0.21679336313197103	-0.03358410911748074	0.15403552196266862	0.21616409146787888	-0.018358878546839125	0.01208517692264708	0.20981939058622937	-0.04009215003299001	-0.02021026819905298	0.19666676719374135	-0.06599645028280343	-0.02836050776559377	0.23062694437653958
